ffmpeg started on 2025-05-12 at 15:53:34
Report written to "D:\Convert\FFMetrics\reports\psnr_report-6.txt"
Log level: 32
Command line:
ffmpeg -hide_banner -nostdin -i "G:\\\xc0\xed\xe8\xec\xe5\\\xce\xed\xe3\xee\xe8\xed\xe3\xe8\\!_35_\xcb\xe5\xf2\xee_2024\\DreamCast\\\xcb\xfe\xe1\xee\xe2\xfc \xed\xe5\xe4\xe5\xeb\xe8\xec\xe0 \xec\xe5\xe6\xe4\xf3 \xe1\xeb\xe8\xe7\xed\xe5\xf6\xe0\xec\xe8\\[DC] Koi wa Futago de Warikirenai - 10_Telegram_HEVC.mkv" -i "G:\\\xc0\xed\xe8\xec\xe5\\\xce\xed\xe3\xee\xe8\xed\xe3\xe8\\!_35_\xcb\xe5\xf2\xee_2024\\DreamCast\\\xcb\xfe\xe1\xee\xe2\xfc \xed\xe5\xe4\xe5\xeb\xe8\xec\xe0 \xec\xe5\xe6\xe4\xf3 \xe1\xeb\xe8\xe7\xed\xe5\xf6\xe0\xec\xe8\\[DC] Koi wa Futago de Warikirenai - 10_Telegram.mp4" -lavfi "[0:v]settb=AVTB,setpts=PTS-STARTPTS,format=pix_fmts=yuv420p10,fps=24000/1001,scale=1920:1080:flags=bicubic[main];[1:v]settb=AVTB,setpts=PTS-STARTPTS,format=pix_fmts=yuv420p,fps=24000/1001,scale=1920:1080:flags=bicubic[ref];[main][ref]psnr=eof_action=endall:stats_file='D\\:/Convert/FFMetrics/logs/psnr_logfile-6.txt'" -f null -
Input #0, matroska,webm, from 'G:\Аниме\Онгоинги\!_35_Лето_2024\DreamCast\Любовь неделима между близнецами\[DC] Koi wa Futago de Warikirenai - 10_Telegram_HEVC.mkv':
  Metadata:
    COMPATIBLE_BRANDS: isomiso2avc1mp41
    MAJOR_BRAND     : isom
    MINOR_VERSION   : 512
    ENCODER         : Lavf61.7.100
  Duration: 00:23:46.73, start: -0.021000, bitrate: 790 kb/s
  Stream #0:0: Video: hevc (Main 10), yuv420p10le(tv, bt709, progressive), 1920x1080 [SAR 1:1 DAR 16:9], 23.98 fps, 23.98 tbr, 1k tbn (default)
      Metadata:
        HANDLER_NAME    : VideoHandler
        VENDOR_ID       : [0][0][0][0]
        ENCODER         : Lavc61.19.100 libx265
        BPS             : 593320
        DURATION        : 00:23:46.591708333
        NUMBER_OF_FRAMES: 34204
        NUMBER_OF_BYTES : 105803215
        _STATISTICS_WRITING_APP: mkvpropedit v66.0.0 ('Josie') 64-bit
        _STATISTICS_WRITING_DATE_UTC: 2025-05-07 16:11:36
        _STATISTICS_TAGS: BPS DURATION NUMBER_OF_FRAMES NUMBER_OF_BYTES
  Stream #0:1: Audio: aac (LC), 48000 Hz, stereo, fltp (default)
      Metadata:
        HANDLER_NAME    : SoundHandler
        VENDOR_ID       : [0][0][0][0]
        ENCODER         : Lavc61.19.100 aac
        BPS             : 192957
        DURATION        : 00:23:46.730000000
        NUMBER_OF_FRAMES: 66879
        NUMBER_OF_BYTES : 34412259
        _STATISTICS_WRITING_APP: mkvpropedit v66.0.0 ('Josie') 64-bit
        _STATISTICS_WRITING_DATE_UTC: 2025-05-07 16:11:36
        _STATISTICS_TAGS: BPS DURATION NUMBER_OF_FRAMES NUMBER_OF_BYTES
Input #1, mov,mp4,m4a,3gp,3g2,mj2, from 'G:\Аниме\Онгоинги\!_35_Лето_2024\DreamCast\Любовь неделима между близнецами\[DC] Koi wa Futago de Warikirenai - 10_Telegram.mp4':
  Metadata:
    major_brand     : isom
    minor_version   : 512
    compatible_brands: isomiso2avc1mp41
    encoder         : Lavf60.12.100
  Duration: 00:23:46.68, start: 0.000000, bitrate: 3791 kb/s
  Stream #1:0[0x1](und): Video: h264 (High) (avc1 / 0x31637661), yuv420p(tv, bt709, progressive), 1920x1080 [SAR 1:1 DAR 16:9], 3643 kb/s, 23.98 fps, 23.98 tbr, 24k tbn (default)
      Metadata:
        handler_name    : VideoHandler
        vendor_id       : [0][0][0][0]
        encoder         : Lavc60.26.100 h264_qsv
  Stream #1:1[0x2](und): Audio: aac (HE-AACv2) (mp4a / 0x6134706D), 48000 Hz, stereo, fltp, 144 kb/s (default)
      Metadata:
        handler_name    : SoundHandler
        vendor_id       : [0][0][0][0]
Stream mapping:
  Stream #0:0 (hevc) -> settb:default
  Stream #1:0 (h264) -> settb:default
  psnr:default -> Stream #0:0 (wrapped_avframe)
  Stream #0:1 -> #0:1 (aac (native) -> pcm_s16le (native))
Output #0, null, to 'pipe:':
  Metadata:
    COMPATIBLE_BRANDS: isomiso2avc1mp41
    MAJOR_BRAND     : isom
    MINOR_VERSION   : 512
    encoder         : Lavf61.7.100
  Stream #0:0: Video: wrapped_avframe, yuv420p10le(tv, bt709, progressive), 1920x1080 [SAR 1:1 DAR 16:9], q=2-31, 200 kb/s, 23.98 fps, 23.98 tbn
      Metadata:
        encoder         : Lavc61.19.100 wrapped_avframe
  Stream #0:1: Audio: pcm_s16le, 48000 Hz, stereo, s16, 1536 kb/s (default)
      Metadata:
        HANDLER_NAME    : SoundHandler
        VENDOR_ID       : [0][0][0][0]
        _STATISTICS_TAGS: BPS DURATION NUMBER_OF_FRAMES NUMBER_OF_BYTES
        BPS             : 192957
        DURATION        : 00:23:46.730000000
        NUMBER_OF_FRAMES: 66879
        NUMBER_OF_BYTES : 34412259
        _STATISTICS_WRITING_APP: mkvpropedit v66.0.0 ('Josie') 64-bit
        _STATISTICS_WRITING_DATE_UTC: 2025-05-07 16:11:36
        encoder         : Lavc61.19.100 pcm_s16le
frame=  168 fps=0.0 q=-0.0 size=N/A time=00:00:07.00 bitrate=N/A speed=13.7x    frame=  417 fps=403 q=-0.0 size=N/A time=00:00:17.39 bitrate=N/A speed=16.8x    frame=  642 fps=416 q=-0.0 size=N/A time=00:00:26.77 bitrate=N/A speed=17.4x    frame=  842 fps=408 q=-0.0 size=N/A time=00:00:35.11 bitrate=N/A speed=  17x    frame= 1050 fps=409 q=-0.0 size=N/A time=00:00:43.79 bitrate=N/A speed=  17x    frame= 1282 fps=414 q=-0.0 size=N/A time=00:00:53.47 bitrate=N/A speed=17.3x    frame= 1482 fps=410 q=-0.0 size=N/A time=00:01:01.81 bitrate=N/A speed=17.1x    frame= 1676 fps=406 q=-0.0 size=N/A time=00:01:09.90 bitrate=N/A speed=16.9x    frame= 1883 fps=407 q=-0.0 size=N/A time=00:01:18.53 bitrate=N/A speed=  17x    frame= 2085 fps=404 q=-0.0 size=N/A time=00:01:26.96 bitrate=N/A speed=16.9x    frame= 2286 fps=404 q=-0.0 size=N/A time=00:01:35.34 bitrate=N/A speed=16.8x    frame= 2504 fps=405 q=-0.0 size=N/A time=00:01:44.43 bitrate=N/A speed=16.9x    frame= 2759 fps=412 q=-0.0 size=N/A time=00:01:55.07 bitrate=N/A speed=17.2x    frame= 3011 fps=417 q=-0.0 size=N/A time=00:02:05.58 bitrate=N/A speed=17.4x    frame= 3272 fps=423 q=-0.0 size=N/A time=00:02:16.46 bitrate=N/A speed=17.7x    frame= 3550 fps=430 q=-0.0 size=N/A time=00:02:28.06 bitrate=N/A speed=17.9x    frame= 3778 fps=431 q=-0.0 size=N/A time=00:02:37.57 bitrate=N/A speed=  18x    frame= 4042 fps=436 q=-0.0 size=N/A time=00:02:48.58 bitrate=N/A speed=18.2x    frame= 4297 fps=439 q=-0.0 size=N/A time=00:02:59.22 bitrate=N/A speed=18.3x    frame= 4571 fps=443 q=-0.0 size=N/A time=00:03:10.64 bitrate=N/A speed=18.5x    frame= 4839 fps=447 q=-0.0 size=N/A time=00:03:21.82 bitrate=N/A speed=18.6x    frame= 5116 fps=451 q=-0.0 size=N/A time=00:03:33.37 bitrate=N/A speed=18.8x    frame= 5367 fps=453 q=-0.0 size=N/A time=00:03:43.84 bitrate=N/A speed=18.9x    frame= 5628 fps=455 q=-0.0 size=N/A time=00:03:54.73 bitrate=N/A speed=  19x    frame= 5888 fps=457 q=-0.0 size=N/A time=00:04:05.57 bitrate=N/A speed=19.1x    frame= 6150 fps=459 q=-0.0 size=N/A time=00:04:16.50 bitrate=N/A speed=19.1x    frame= 6419 fps=461 q=-0.0 size=N/A time=00:04:27.72 bitrate=N/A speed=19.2x    frame= 6684 fps=463 q=-0.0 size=N/A time=00:04:38.77 bitrate=N/A speed=19.3x    frame= 6943 fps=464 q=-0.0 size=N/A time=00:04:49.58 bitrate=N/A speed=19.4x    frame= 7204 fps=466 q=-0.0 size=N/A time=00:05:00.46 bitrate=N/A speed=19.4x    frame= 7475 fps=468 q=-0.0 size=N/A time=00:05:11.76 bitrate=N/A speed=19.5x    frame= 7730 fps=469 q=-0.0 size=N/A time=00:05:22.40 bitrate=N/A speed=19.5x    frame= 7994 fps=470 q=-0.0 size=N/A time=00:05:33.41 bitrate=N/A speed=19.6x    frame= 8241 fps=470 q=-0.0 size=N/A time=00:05:43.71 bitrate=N/A speed=19.6x    frame= 8459 fps=469 q=-0.0 size=N/A time=00:05:52.81 bitrate=N/A speed=19.6x    frame= 8723 fps=470 q=-0.0 size=N/A time=00:06:03.82 bitrate=N/A speed=19.6x    frame= 8957 fps=470 q=-0.0 size=N/A time=00:06:13.58 bitrate=N/A speed=19.6x    frame= 9226 fps=471 q=-0.0 size=N/A time=00:06:24.80 bitrate=N/A speed=19.6x    frame= 9486 fps=472 q=-0.0 size=N/A time=00:06:35.64 bitrate=N/A speed=19.7x    frame= 9745 fps=473 q=-0.0 size=N/A time=00:06:46.44 bitrate=N/A speed=19.7x    frame=10005 fps=473 q=-0.0 size=N/A time=00:06:57.29 bitrate=N/A speed=19.7x    frame=10270 fps=474 q=-0.0 size=N/A time=00:07:08.34 bitrate=N/A speed=19.8x    frame=10538 fps=475 q=-0.0 size=N/A time=00:07:19.52 bitrate=N/A speed=19.8x    frame=10803 fps=476 q=-0.0 size=N/A time=00:07:30.57 bitrate=N/A speed=19.8x    frame=11072 fps=477 q=-0.0 size=N/A time=00:07:41.79 bitrate=N/A speed=19.9x    frame=11348 fps=478 q=-0.0 size=N/A time=00:07:53.30 bitrate=N/A speed=19.9x    frame=11602 fps=478 q=-0.0 size=N/A time=00:08:03.90 bitrate=N/A speed=  20x    frame=11853 fps=479 q=-0.0 size=N/A time=00:08:14.36 bitrate=N/A speed=  20x    frame=12136 fps=480 q=-0.0 size=N/A time=00:08:26.17 bitrate=N/A speed=  20x    frame=12407 fps=481 q=-0.0 size=N/A time=00:08:37.47 bitrate=N/A speed=20.1x    frame=12690 fps=482 q=-0.0 size=N/A time=00:08:49.27 bitrate=N/A speed=20.1x    frame=12953 fps=483 q=-0.0 size=N/A time=00:09:00.24 bitrate=N/A speed=20.1x    frame=13208 fps=483 q=-0.0 size=N/A time=00:09:10.88 bitrate=N/A speed=20.1x    frame=13458 fps=483 q=-0.0 size=N/A time=00:09:21.31 bitrate=N/A speed=20.2x    frame=13724 fps=484 q=-0.0 size=N/A time=00:09:32.40 bitrate=N/A speed=20.2x    frame=13984 fps=484 q=-0.0 size=N/A time=00:09:43.24 bitrate=N/A speed=20.2x    frame=14252 fps=485 q=-0.0 size=N/A time=00:09:54.42 bitrate=N/A speed=20.2x    frame=14515 fps=485 q=-0.0 size=N/A time=00:10:05.39 bitrate=N/A speed=20.2x    frame=14758 fps=485 q=-0.0 size=N/A time=00:10:15.53 bitrate=N/A speed=20.2x    frame=15019 fps=485 q=-0.0 size=N/A time=00:10:26.41 bitrate=N/A speed=20.2x    frame=15288 fps=486 q=-0.0 size=N/A time=00:10:37.63 bitrate=N/A speed=20.3x    frame=15534 fps=486 q=-0.0 size=N/A time=00:10:47.89 bitrate=N/A speed=20.3x    frame=15771 fps=485 q=-0.0 size=N/A time=00:10:57.78 bitrate=N/A speed=20.2x    frame=16042 fps=486 q=-0.0 size=N/A time=00:11:09.08 bitrate=N/A speed=20.3x    frame=16299 fps=486 q=-0.0 size=N/A time=00:11:19.80 bitrate=N/A speed=20.3x    frame=16520 fps=485 q=-0.0 size=N/A time=00:11:29.02 bitrate=N/A speed=20.2x    frame=16743 fps=484 q=-0.0 size=N/A time=00:11:38.32 bitrate=N/A speed=20.2x    frame=16978 fps=484 q=-0.0 size=N/A time=00:11:48.12 bitrate=N/A speed=20.2x    frame=17239 fps=484 q=-0.0 size=N/A time=00:11:59.00 bitrate=N/A speed=20.2x    frame=17496 fps=485 q=-0.0 size=N/A time=00:12:09.72 bitrate=N/A speed=20.2x    frame=17761 fps=485 q=-0.0 size=N/A time=00:12:20.78 bitrate=N/A speed=20.2x    frame=18014 fps=485 q=-0.0 size=N/A time=00:12:31.33 bitrate=N/A speed=20.2x    frame=18281 fps=486 q=-0.0 size=N/A time=00:12:42.47 bitrate=N/A speed=20.3x    frame=18537 fps=486 q=-0.0 size=N/A time=00:12:53.14 bitrate=N/A speed=20.3x    frame=18796 fps=486 q=-0.0 size=N/A time=00:13:03.94 bitrate=N/A speed=20.3x    frame=19059 fps=486 q=-0.0 size=N/A time=00:13:14.91 bitrate=N/A speed=20.3x    frame=19296 fps=486 q=-0.0 size=N/A time=00:13:24.80 bitrate=N/A speed=20.3x    frame=19556 fps=486 q=-0.0 size=N/A time=00:13:35.64 bitrate=N/A speed=20.3x    frame=19816 fps=486 q=-0.0 size=N/A time=00:13:46.49 bitrate=N/A speed=20.3x    frame=20063 fps=486 q=-0.0 size=N/A time=00:13:56.79 bitrate=N/A speed=20.3x    frame=20306 fps=486 q=-0.0 size=N/A time=00:14:06.92 bitrate=N/A speed=20.3x    frame=20563 fps=486 q=-0.0 size=N/A time=00:14:17.64 bitrate=N/A speed=20.3x    frame=20819 fps=486 q=-0.0 size=N/A time=00:14:28.32 bitrate=N/A speed=20.3x    frame=21087 fps=487 q=-0.0 size=N/A time=00:14:39.50 bitrate=N/A speed=20.3x    frame=21325 fps=486 q=-0.0 size=N/A time=00:14:49.43 bitrate=N/A speed=20.3x    frame=21579 fps=486 q=-0.0 size=N/A time=00:15:00.02 bitrate=N/A speed=20.3x    frame=21826 fps=486 q=-0.0 size=N/A time=00:15:10.32 bitrate=N/A speed=20.3x    frame=22089 fps=487 q=-0.0 size=N/A time=00:15:21.29 bitrate=N/A speed=20.3x    frame=22358 fps=487 q=-0.0 size=N/A time=00:15:32.51 bitrate=N/A speed=20.3x    frame=22623 fps=487 q=-0.0 size=N/A time=00:15:43.56 bitrate=N/A speed=20.3x    frame=22874 fps=487 q=-0.0 size=N/A time=00:15:54.03 bitrate=N/A speed=20.3x    frame=23123 fps=487 q=-0.0 size=N/A time=00:16:04.42 bitrate=N/A speed=20.3x    frame=23383 fps=488 q=-0.0 size=N/A time=00:16:15.26 bitrate=N/A speed=20.3x    frame=23666 fps=488 q=-0.0 size=N/A time=00:16:27.06 bitrate=N/A speed=20.4x    frame=23936 fps=489 q=-0.0 size=N/A time=00:16:38.33 bitrate=N/A speed=20.4x    frame=24183 fps=488 q=-0.0 size=N/A time=00:16:48.63 bitrate=N/A speed=20.4x    frame=24440 fps=488 q=-0.0 size=N/A time=00:16:59.35 bitrate=N/A speed=20.4x    frame=24703 fps=489 q=-0.0 size=N/A time=00:17:10.32 bitrate=N/A speed=20.4x    frame=24965 fps=489 q=-0.0 size=N/A time=00:17:21.24 bitrate=N/A speed=20.4x    frame=25227 fps=489 q=-0.0 size=N/A time=00:17:32.17 bitrate=N/A speed=20.4x    frame=25495 fps=489 q=-0.0 size=N/A time=00:17:43.35 bitrate=N/A speed=20.4x    frame=25741 fps=489 q=-0.0 size=N/A time=00:17:53.61 bitrate=N/A speed=20.4x    frame=26003 fps=489 q=-0.0 size=N/A time=00:18:04.54 bitrate=N/A speed=20.4x    frame=26268 fps=490 q=-0.0 size=N/A time=00:18:15.63 bitrate=N/A speed=20.4x    frame=26540 fps=490 q=-0.0 size=N/A time=00:18:26.93 bitrate=N/A speed=20.4x    frame=26800 fps=490 q=-0.0 size=N/A time=00:18:37.78 bitrate=N/A speed=20.4x    frame=27049 fps=490 q=-0.0 size=N/A time=00:18:48.16 bitrate=N/A speed=20.4x    frame=27301 fps=490 q=-0.0 size=N/A time=00:18:58.72 bitrate=N/A speed=20.4x    frame=27566 fps=490 q=-0.0 size=N/A time=00:19:09.73 bitrate=N/A speed=20.4x    frame=27831 fps=490 q=-0.0 size=N/A time=00:19:20.78 bitrate=N/A speed=20.5x    frame=28082 fps=490 q=-0.0 size=N/A time=00:19:31.25 bitrate=N/A speed=20.5x    frame=28320 fps=490 q=-0.0 size=N/A time=00:19:41.18 bitrate=N/A speed=20.4x    frame=28552 fps=490 q=-0.0 size=N/A time=00:19:50.85 bitrate=N/A speed=20.4x    frame=28813 fps=490 q=-0.0 size=N/A time=00:20:01.74 bitrate=N/A speed=20.4x    frame=29071 fps=490 q=-0.0 size=N/A time=00:20:12.50 bitrate=N/A speed=20.4x    frame=29334 fps=490 q=-0.0 size=N/A time=00:20:23.47 bitrate=N/A speed=20.4x    frame=29584 fps=490 q=-0.0 size=N/A time=00:20:33.89 bitrate=N/A speed=20.4x    frame=29855 fps=490 q=-0.0 size=N/A time=00:20:45.20 bitrate=N/A speed=20.5x    frame=30108 fps=490 q=-0.0 size=N/A time=00:20:55.75 bitrate=N/A speed=20.5x    frame=30328 fps=490 q=-0.0 size=N/A time=00:21:04.93 bitrate=N/A speed=20.4x    frame=30586 fps=490 q=-0.0 size=N/A time=00:21:15.69 bitrate=N/A speed=20.4x    frame=30835 fps=490 q=-0.0 size=N/A time=00:21:26.07 bitrate=N/A speed=20.4x    frame=31078 fps=490 q=-0.0 size=N/A time=00:21:36.21 bitrate=N/A speed=20.4x    frame=31334 fps=490 q=-0.0 size=N/A time=00:21:46.88 bitrate=N/A speed=20.4x    frame=31590 fps=490 q=-0.0 size=N/A time=00:21:57.56 bitrate=N/A speed=20.4x    frame=31846 fps=490 q=-0.0 size=N/A time=00:22:08.24 bitrate=N/A speed=20.4x    frame=32085 fps=490 q=-0.0 size=N/A time=00:22:18.21 bitrate=N/A speed=20.4x    frame=32303 fps=489 q=-0.0 size=N/A time=00:22:27.30 bitrate=N/A speed=20.4x    frame=32506 fps=488 q=-0.0 size=N/A time=00:22:35.77 bitrate=N/A speed=20.4x    frame=32743 fps=488 q=-0.0 size=N/A time=00:22:45.65 bitrate=N/A speed=20.4x    frame=32952 fps=488 q=-0.0 size=N/A time=00:22:54.37 bitrate=N/A speed=20.3x    frame=33158 fps=487 q=-0.0 size=N/A time=00:23:02.96 bitrate=N/A speed=20.3x    frame=33384 fps=487 q=-0.0 size=N/A time=00:23:12.39 bitrate=N/A speed=20.3x    frame=33586 fps=486 q=-0.0 size=N/A time=00:23:20.81 bitrate=N/A speed=20.3x    frame=33796 fps=485 q=-0.0 size=N/A time=00:23:29.57 bitrate=N/A speed=20.2x    frame=33996 fps=485 q=-0.0 size=N/A time=00:23:37.91 bitrate=N/A speed=20.2x    [Parsed_psnr_10 @ 000001a35170d580] PSNR y:49.005583 u:49.410836 v:48.847419 average:49.043387 min:43.015587 max:inf
[out#0/null @ 000001a349bb6e00] video:14697KiB audio:267516KiB subtitle:0KiB other streams:0KiB global headers:0KiB muxing overhead: unknown
frame=34204 fps=484 q=-0.0 Lsize=N/A time=00:23:46.59 bitrate=N/A speed=20.2x    
